<svg width="18" height="18" viewBox="0 0 18 18" fill="none" xmlns="http://www.w3.org/2000/svg">
<g id="fluent-emoji:star">
<g id="Group">
<g id="Group_2" filter="url(#filter0_iii_1646_754)">
<path id="Vector" d="M10.4649 2.10598L11.704 4.70473C11.8953 5.09061 12.2457 5.36229 12.6519 5.42248L15.4239 5.81398C16.8515 6.02548 17.3904 7.55829 16.2828 8.67486L14.3405 10.6785C14.1827 10.8378 14.0656 11.0328 13.9988 11.2468C13.932 11.4609 13.9177 11.6879 13.9569 11.9087L14.3934 14.7566C14.6414 16.2337 13.3977 17.2822 12.1389 16.6072L9.58736 15.2499C9.41354 15.1579 9.21985 15.1098 9.02317 15.1098C8.8265 15.1098 8.63281 15.1579 8.45898 15.2499L5.90749 16.6067C4.64861 17.276 3.32786 16.2596 3.69686 14.7217L4.12774 11.9357C4.16694 11.7149 4.15256 11.4879 4.0858 11.2738C4.01904 11.0598 3.90186 10.8648 3.74411 10.7055L1.76355 8.63098C0.646985 7.52792 1.19486 6.02548 2.62249 5.81454L5.29267 5.42248C5.69936 5.36229 6.16567 5.09679 6.35186 4.70473L7.61636 2.10598C8.25986 0.798169 9.82699 0.798169 10.4654 2.10598" fill="url(#paint0_radial_1646_754)"/>
<path id="Vector_2" d="M10.4649 2.10598L11.704 4.70473C11.8953 5.09061 12.2457 5.36229 12.6519 5.42248L15.4239 5.81398C16.8515 6.02548 17.3904 7.55829 16.2828 8.67486L14.3405 10.6785C14.1827 10.8378 14.0656 11.0328 13.9988 11.2468C13.932 11.4609 13.9177 11.6879 13.9569 11.9087L14.3934 14.7566C14.6414 16.2337 13.3977 17.2822 12.1389 16.6072L9.58736 15.2499C9.41354 15.1579 9.21985 15.1098 9.02317 15.1098C8.8265 15.1098 8.63281 15.1579 8.45898 15.2499L5.90749 16.6067C4.64861 17.276 3.32786 16.2596 3.69686 14.7217L4.12774 11.9357C4.16694 11.7149 4.15256 11.4879 4.0858 11.2738C4.01904 11.0598 3.90186 10.8648 3.74411 10.7055L1.76355 8.63098C0.646985 7.52792 1.19486 6.02548 2.62249 5.81454L5.29267 5.42248C5.69936 5.36229 6.16567 5.09679 6.35186 4.70473L7.61636 2.10598C8.25986 0.798169 9.82699 0.798169 10.4654 2.10598" fill="url(#paint1_radial_1646_754)"/>
</g>
<path id="Vector_3" d="M10.4649 2.10598L11.704 4.70473C11.8953 5.09061 12.2457 5.36229 12.6519 5.42248L15.4239 5.81398C16.8515 6.02548 17.3904 7.55829 16.2828 8.67486L14.3405 10.6785C14.1827 10.8378 14.0656 11.0328 13.9988 11.2468C13.932 11.4609 13.9177 11.6879 13.9569 11.9087L14.3934 14.7566C14.6414 16.2337 13.3977 17.2822 12.1389 16.6072L9.58736 15.2499C9.41354 15.1579 9.21985 15.1098 9.02317 15.1098C8.8265 15.1098 8.63281 15.1579 8.45898 15.2499L5.90749 16.6067C4.64861 17.276 3.32786 16.2596 3.69686 14.7217L4.12774 11.9357C4.16694 11.7149 4.15256 11.4879 4.0858 11.2738C4.01904 11.0598 3.90186 10.8648 3.74411 10.7055L1.76355 8.63098C0.646985 7.52792 1.19486 6.02548 2.62249 5.81454L5.29267 5.42248C5.69936 5.36229 6.16567 5.09679 6.35186 4.70473L7.61636 2.10598C8.25986 0.798169 9.82699 0.798169 10.4654 2.10598" fill="url(#paint2_radial_1646_754)"/>
<path id="Vector_4" d="M10.4649 2.10598L11.704 4.70473C11.8953 5.09061 12.2457 5.36229 12.6519 5.42248L15.4239 5.81398C16.8515 6.02548 17.3904 7.55829 16.2828 8.67486L14.3405 10.6785C14.1827 10.8378 14.0656 11.0328 13.9988 11.2468C13.932 11.4609 13.9177 11.6879 13.9569 11.9087L14.3934 14.7566C14.6414 16.2337 13.3977 17.2822 12.1389 16.6072L9.58736 15.2499C9.41354 15.1579 9.21985 15.1098 9.02317 15.1098C8.8265 15.1098 8.63281 15.1579 8.45898 15.2499L5.90749 16.6067C4.64861 17.276 3.32786 16.2596 3.69686 14.7217L4.12774 11.9357C4.16694 11.7149 4.15256 11.4879 4.0858 11.2738C4.01904 11.0598 3.90186 10.8648 3.74411 10.7055L1.76355 8.63098C0.646985 7.52792 1.19486 6.02548 2.62249 5.81454L5.29267 5.42248C5.69936 5.36229 6.16567 5.09679 6.35186 4.70473L7.61636 2.10598C8.25986 0.798169 9.82699 0.798169 10.4654 2.10598" fill="url(#paint3_radial_1646_754)"/>
<path id="Vector_5" d="M10.4649 2.10598L11.704 4.70473C11.8953 5.09061 12.2457 5.36229 12.6519 5.42248L15.4239 5.81398C16.8515 6.02548 17.3904 7.55829 16.2828 8.67486L14.3405 10.6785C14.1827 10.8378 14.0656 11.0328 13.9988 11.2468C13.932 11.4609 13.9177 11.6879 13.9569 11.9087L14.3934 14.7566C14.6414 16.2337 13.3977 17.2822 12.1389 16.6072L9.58736 15.2499C9.41354 15.1579 9.21985 15.1098 9.02317 15.1098C8.8265 15.1098 8.63281 15.1579 8.45898 15.2499L5.90749 16.6067C4.64861 17.276 3.32786 16.2596 3.69686 14.7217L4.12774 11.9357C4.16694 11.7149 4.15256 11.4879 4.0858 11.2738C4.01904 11.0598 3.90186 10.8648 3.74411 10.7055L1.76355 8.63098C0.646985 7.52792 1.19486 6.02548 2.62249 5.81454L5.29267 5.42248C5.69936 5.36229 6.16567 5.09679 6.35186 4.70473L7.61636 2.10598C8.25986 0.798169 9.82699 0.798169 10.4654 2.10598" fill="url(#paint4_radial_1646_754)"/>
<path id="Vector_6" d="M10.4649 2.10598L11.704 4.70473C11.8953 5.09061 12.2457 5.36229 12.6519 5.42248L15.4239 5.81398C16.8515 6.02548 17.3904 7.55829 16.2828 8.67486L14.3405 10.6785C14.1827 10.8378 14.0656 11.0328 13.9988 11.2468C13.932 11.4609 13.9177 11.6879 13.9569 11.9087L14.3934 14.7566C14.6414 16.2337 13.3977 17.2822 12.1389 16.6072L9.58736 15.2499C9.41354 15.1579 9.21985 15.1098 9.02317 15.1098C8.8265 15.1098 8.63281 15.1579 8.45898 15.2499L5.90749 16.6067C4.64861 17.276 3.32786 16.2596 3.69686 14.7217L4.12774 11.9357C4.16694 11.7149 4.15256 11.4879 4.0858 11.2738C4.01904 11.0598 3.90186 10.8648 3.74411 10.7055L1.76355 8.63098C0.646985 7.52792 1.19486 6.02548 2.62249 5.81454L5.29267 5.42248C5.69936 5.36229 6.16567 5.09679 6.35186 4.70473L7.61636 2.10598C8.25986 0.798169 9.82699 0.798169 10.4654 2.10598" fill="url(#paint5_radial_1646_754)"/>
</g>
</g>
<defs>
<filter id="filter0_iii_1646_754" x="-0.0820312" y="0.625122" width="18.457" height="17.4414" filterUnits="userSpaceOnUse" color-interpolation-filters="sRGB">
<feFlood flood-opacity="0" result="BackgroundImageFix"/>
<feBlend mode="normal" in="SourceGraphic" in2="BackgroundImageFix" result="shape"/>
<feColorMatrix in="SourceAlpha" type="matrix" values="0 0 0 0 0 0 0 0 0 0 0 0 0 0 0 0 0 0 127 0" result="hardAlpha"/>
<feOffset dy="-0.5"/>
<feGaussianBlur stdDeviation="1.5"/>
<feComposite in2="hardAlpha" operator="arithmetic" k2="-1" k3="1"/>
<feColorMatrix type="matrix" values="0 0 0 0 0.772549 0 0 0 0 0.494118 0 0 0 0 0.282353 0 0 0 1 0"/>
<feBlend mode="normal" in2="shape" result="effect1_innerShadow_1646_754"/>
<feColorMatrix in="SourceAlpha" type="matrix" values="0 0 0 0 0 0 0 0 0 0 0 0 0 0 0 0 0 0 127 0" result="hardAlpha"/>
<feOffset dx="-1.25" dy="1.25"/>
<feGaussianBlur stdDeviation="0.75"/>
<feComposite in2="hardAlpha" operator="arithmetic" k2="-1" k3="1"/>
<feColorMatrix type="matrix" values="0 0 0 0 1 0 0 0 0 0.952941 0 0 0 0 0.286275 0 0 0 1 0"/>
<feBlend mode="normal" in2="effect1_innerShadow_1646_754" result="effect2_innerShadow_1646_754"/>
<feColorMatrix in="SourceAlpha" type="matrix" values="0 0 0 0 0 0 0 0 0 0 0 0 0 0 0 0 0 0 127 0" result="hardAlpha"/>
<feOffset dx="1.5" dy="-0.5"/>
<feGaussianBlur stdDeviation="0.75"/>
<feComposite in2="hardAlpha" operator="arithmetic" k2="-1" k3="1"/>
<feColorMatrix type="matrix" values="0 0 0 0 0.698039 0 0 0 0 0.537255 0 0 0 0 0.192157 0 0 0 1 0"/>
<feBlend mode="normal" in2="effect2_innerShadow_1646_754" result="effect3_innerShadow_1646_754"/>
</filter>
<radialGradient id="paint0_radial_1646_754" cx="0" cy="0" r="1" gradientUnits="userSpaceOnUse" gradientTransform="translate(13.8043 5.04529) rotate(132.939) scale(11.2389 11.1224)">
<stop stop-color="#FAC632"/>
<stop offset="1" stop-color="#F7C632"/>
</radialGradient>
<radialGradient id="paint1_radial_1646_754" cx="0" cy="0" r="1" gradientUnits="userSpaceOnUse" gradientTransform="translate(9.02148 8.97073) rotate(90) scale(7.84564 7.85329)">
<stop stop-color="#DDBA38"/>
<stop offset="1" stop-color="#DDBA38" stop-opacity="0"/>
</radialGradient>
<radialGradient id="paint2_radial_1646_754" cx="0" cy="0" r="1" gradientUnits="userSpaceOnUse" gradientTransform="translate(3.9708 5.67111) rotate(74.0547) scale(1.27415 4.25216)">
<stop stop-color="#DDBA38"/>
<stop offset="1" stop-color="#DDBA38" stop-opacity="0"/>
</radialGradient>
<radialGradient id="paint3_radial_1646_754" cx="0" cy="0" r="1" gradientUnits="userSpaceOnUse" gradientTransform="translate(1.16786 6.47998) rotate(16.0829) scale(2.2112 2.21336)">
<stop stop-color="#B5953A"/>
<stop offset="1" stop-color="#B5953A" stop-opacity="0"/>
</radialGradient>
<radialGradient id="paint4_radial_1646_754" cx="0" cy="0" r="1" gradientUnits="userSpaceOnUse" gradientTransform="translate(4.99905 17.3312) rotate(-58.4961) scale(1.59088 1.59243)">
<stop stop-color="#C47E42"/>
<stop offset="1" stop-color="#C47E42" stop-opacity="0"/>
</radialGradient>
<radialGradient id="paint5_radial_1646_754" cx="0" cy="0" r="1" gradientUnits="userSpaceOnUse" gradientTransform="translate(17.469 6.56781) rotate(150.751) scale(1.2537 1.64847)">
<stop stop-color="#FFF246"/>
<stop offset="1" stop-color="#FFF246" stop-opacity="0"/>
</radialGradient>
</defs>
</svg>
